<svg width="40" height="40" viewBox="0 0 40 40" fill="none" xmlns="http://www.w3.org/2000/svg">
<g clip-path="url(#clip0_474_2838)">
<path d="M16.3109 16.4556C14.8249 16.4556 13.3722 16.0148 12.1368 15.1889C10.9014 14.3631 9.93866 13.1894 9.37049 11.8163C8.80232 10.4431 8.65423 8.93234 8.94495 7.47503C9.23567 6.01771 9.95214 4.67938 11.0037 3.62938C12.0553 2.57937 13.3946 1.86489 14.8524 1.57632C16.3101 1.28776 17.8207 1.43809 19.193 2.0083C20.5653 2.5785 21.7376 3.54295 22.5616 4.7796C23.3856 6.01626 23.8242 7.46955 23.822 8.95558C23.8161 10.9448 23.0226 12.8507 21.6149 14.2563C20.2073 15.6619 18.3002 16.4526 16.3109 16.4556ZM16.3109 3.66669C15.2649 3.66669 14.2423 3.97687 13.3726 4.55803C12.5028 5.13918 11.8249 5.96519 11.4246 6.9316C11.0243 7.89802 10.9196 8.96144 11.1236 9.98739C11.3277 11.0133 11.8314 11.9557 12.5711 12.6954C13.3108 13.435 14.2532 13.9388 15.2791 14.1428C16.305 14.3469 17.3685 14.2422 18.3349 13.8419C19.3013 13.4416 20.1273 12.7637 20.7085 11.8939C21.2896 11.0242 21.5998 10.0016 21.5998 8.95558C21.5998 7.55288 21.0426 6.20763 20.0507 5.21577C19.0589 4.22391 17.7136 3.66669 16.3109 3.66669Z" fill="#3D3D3D"/>
<path d="M18.2449 35.2C18.002 34.9571 17.8147 34.6645 17.6958 34.3422C17.5769 34.02 17.5292 33.6758 17.556 33.3334H4.44488V26.9111C6.02033 25.2301 7.93122 23.8986 10.0539 23.0028C12.1765 22.107 14.4636 21.667 16.7671 21.7111H17.5671C17.5161 21.3386 17.5517 20.9593 17.6712 20.6028C17.7907 20.2463 17.9908 19.9222 18.256 19.6556L18.3893 19.5334C17.8671 19.5334 17.2782 19.4667 16.7671 19.4667C14.0564 19.4024 11.3653 19.9412 8.8884 21.0441C6.41146 22.1471 4.21058 23.7868 2.44488 25.8445C2.30063 26.0368 2.22266 26.2707 2.22266 26.5111V33.3334C2.22266 33.9227 2.45678 34.488 2.87353 34.9047C3.29028 35.3215 3.85551 35.5556 4.44488 35.5556H18.556L18.2449 35.2Z" fill="#3D3D3D"/>
<path d="M29.8555 18.1C29.9104 18.0886 29.9672 18.0886 30.0221 18.1C29.967 18.09 29.9106 18.09 29.8555 18.1Z" fill="#3D3D3D"/>
<path d="M37.4226 25.9111L35.2004 25.2333C35.0416 24.6897 34.8255 24.1646 34.556 23.6666L35.6671 21.5999C35.7032 21.5173 35.7119 21.4252 35.6919 21.3372C35.6719 21.2492 35.6243 21.17 35.556 21.1111L33.9448 19.4999C33.8839 19.434 33.8026 19.3904 33.7139 19.3763C33.6252 19.3622 33.5343 19.3784 33.456 19.4222L31.4115 20.5333C30.9081 20.2503 30.3753 20.023 29.8226 19.8555L29.1448 17.6333C29.1161 17.5515 29.0615 17.4812 28.9894 17.4331C28.9172 17.3851 28.8314 17.3617 28.7448 17.3666H26.4671C26.3796 17.3656 26.2942 17.3933 26.2239 17.4455C26.1537 17.4977 26.1025 17.5714 26.0782 17.6555L25.4004 19.8777C24.8439 20.0396 24.3072 20.2632 23.8004 20.5444L21.7782 19.4333C21.7015 19.3903 21.6125 19.3746 21.5257 19.3888C21.4389 19.4029 21.3595 19.446 21.3004 19.5111L19.656 21.1111C19.595 21.1753 19.5557 21.257 19.5438 21.3447C19.5318 21.4325 19.5477 21.5218 19.5893 21.5999L20.7004 23.6222C20.4065 24.123 20.1716 24.6562 20.0004 25.2111L17.7782 25.8777C17.6941 25.902 17.6203 25.9532 17.5682 26.0235C17.516 26.0937 17.4883 26.1791 17.4893 26.2666V28.5444C17.4959 28.6246 17.5272 28.7009 17.5789 28.7626C17.6307 28.8243 17.7003 28.8684 17.7782 28.8888L20.0004 29.5666C20.1646 30.1117 20.3882 30.637 20.6671 31.1333L19.556 33.2555C19.5136 33.3315 19.4971 33.4193 19.5092 33.5056C19.5212 33.5918 19.561 33.6717 19.6226 33.7333L21.2337 35.3444C21.2967 35.4072 21.3778 35.4485 21.4656 35.4624C21.5534 35.4764 21.6433 35.4623 21.7226 35.4222L23.8004 34.3111C24.2949 34.577 24.8163 34.7893 25.356 34.9444L26.0226 37.1666C26.05 37.2489 26.1019 37.3207 26.1715 37.3724C26.2411 37.4241 26.3249 37.4531 26.4115 37.4555H28.6893C28.7763 37.4547 28.8609 37.4263 28.9308 37.3744C29.0007 37.3225 29.0523 37.2497 29.0782 37.1666L29.756 34.8888C30.2884 34.7336 30.8025 34.5213 31.2893 34.2555L33.3893 35.3666C33.4665 35.4076 33.555 35.4222 33.6413 35.4082C33.7276 35.3941 33.8069 35.3522 33.8671 35.2888L35.556 33.7777C35.6014 33.7125 35.6257 33.635 35.6257 33.5555C35.6257 33.476 35.6014 33.3985 35.556 33.3333L34.4448 31.2444C34.7146 30.7542 34.9306 30.2364 35.0893 29.6999L37.3115 29.0222C37.3956 28.9979 37.4693 28.9467 37.5215 28.8764C37.5737 28.8062 37.6014 28.7208 37.6004 28.6333V26.2999C37.6106 26.2249 37.5993 26.1486 37.5678 26.0797C37.5364 26.0109 37.486 25.9524 37.4226 25.9111ZM27.6115 31.1111C26.8766 31.1133 26.1575 30.8972 25.5456 30.4903C24.9336 30.0833 24.4562 29.5038 24.1739 28.8253C23.8917 28.1467 23.8172 27.3996 23.9601 26.6787C24.1029 25.9578 24.4566 25.2955 24.9763 24.7758C25.4959 24.2561 26.1582 23.9025 26.8791 23.7596C27.6001 23.6168 28.3471 23.6912 29.0257 23.9735C29.7043 24.2557 30.2838 24.7331 30.6907 25.3451C31.0976 25.9571 31.3137 26.6761 31.3115 27.4111C31.3086 28.3915 30.9178 29.3309 30.2246 30.0241C29.5313 30.7174 28.5919 31.1081 27.6115 31.1111Z" fill="#3D3D3D"/>
</g>
<defs>
<clipPath id="clip0_474_2838">
<rect width="40" height="40" fill="white"/>
</clipPath>
</defs>
</svg>
