<svg width="40" height="40" viewBox="0 0 40 40" fill="none" xmlns="http://www.w3.org/2000/svg">
<path d="M36.6668 16.2666V6.66663H6.66683V9.99996H33.3335V14.3166C34.5502 14.8 35.6668 15.4666 36.6668 16.2666ZM15.0002 15H3.3335V33.3333H15.0002V15ZM11.6668 30H6.66683V18.3333H11.6668V30ZM29.5835 28.2833C30.0835 27.9 30.4168 27.3333 30.4168 26.6666C30.4168 26.1141 30.1973 25.5842 29.8066 25.1935C29.4159 24.8028 28.886 24.5833 28.3335 24.5833C27.781 24.5833 27.2511 24.8028 26.8604 25.1935C26.4697 25.5842 26.2502 26.1141 26.2502 26.6666C26.2502 27.3333 26.5835 27.9166 27.0835 28.2833V36.6666H29.5835V28.2833Z" fill="#3D3D3D"/>
<path d="M28.3332 22.5C29.4382 22.5 30.498 22.939 31.2794 23.7204C32.0609 24.5018 32.4998 25.5616 32.4998 26.6667C32.4998 27.8167 32.0332 28.85 31.2832 29.6L33.0498 31.3667C34.2498 30.1667 34.9998 28.5 34.9998 26.6667C34.9998 22.9833 32.0165 20 28.3332 20C24.6498 20 21.6665 22.9833 21.6665 26.6667C21.6665 28.5 22.4165 30.1667 23.6165 31.3833L25.3832 29.6167C24.7989 29.0339 24.4009 28.2908 24.2395 27.4816C24.0781 26.6724 24.1607 25.8334 24.4766 25.0711C24.7926 24.3089 25.3278 23.6576 26.0144 23.1998C26.701 22.7421 27.508 22.4985 28.3332 22.5Z" fill="#3D3D3D"/>
<path d="M28.3333 15.8334C25.4602 15.8334 22.7047 16.9747 20.673 19.0064C18.6414 21.038 17.5 23.7935 17.5 26.6667C17.5 29.65 18.7167 32.3667 20.6667 34.3334L22.4333 32.5667C20.9333 31.05 20 28.9667 20 26.6667C20 22.0667 23.7333 18.3334 28.3333 18.3334C32.9333 18.3334 36.6667 22.0667 36.6667 26.6667C36.6667 28.95 35.7333 31.0334 34.2333 32.5334L36.0167 34.3C37.5239 32.7822 38.548 30.8521 38.96 28.7531C39.3719 26.6541 39.1533 24.4801 38.3316 22.5052C37.5099 20.5302 36.1219 18.8428 34.3426 17.6554C32.5633 16.4681 30.4724 15.8341 28.3333 15.8334Z" fill="#3D3D3D"/>
</svg>
