<svg width="36" height="30" viewBox="0 0 36 30" fill="none" xmlns="http://www.w3.org/2000/svg">
<rect width="36" height="30" rx="4" fill="#0E83D9"/>
<path d="M14.5 11.3335H13.6667C13.2246 11.3335 12.8007 11.5091 12.4882 11.8217C12.1756 12.1342 12 12.5581 12 13.0002V20.5002C12 20.9422 12.1756 21.3661 12.4882 21.6787C12.8007 21.9912 13.2246 22.1668 13.6667 22.1668H21.1667C21.6087 22.1668 22.0326 21.9912 22.3452 21.6787C22.6577 21.3661 22.8333 20.9422 22.8333 20.5002V19.6668" stroke="white" stroke-width="2" stroke-linecap="round" stroke-linejoin="round"/>
<path d="M21.9998 9.66676L24.4998 12.1668M25.654 10.9876C25.9822 10.6594 26.1666 10.2142 26.1666 9.75009C26.1666 9.28594 25.9822 8.84079 25.654 8.51259C25.3258 8.18438 24.8807 8 24.4165 8C23.9524 8 23.5072 8.18438 23.179 8.51259L16.1665 15.5001V18.0001H18.6665L25.654 10.9876Z" stroke="white" stroke-width="2" stroke-linecap="round" stroke-linejoin="round"/>
</svg>
