<svg width="24" height="24" viewBox="0 0 24 24" fill="none" xmlns="http://www.w3.org/2000/svg">
<g clip-path="url(#clip0_122_353)">
<path d="M22.909 14.8371H19.637V9.09106C19.6375 8.83836 19.5494 8.59349 19.388 8.39906L19.389 8.40106L19.386 8.39506C19.366 8.37112 19.345 8.34809 19.323 8.32606L19.314 8.31706L19.286 8.28806L11.32 0.322057C11.2973 0.299621 11.2732 0.278583 11.248 0.259057L11.222 0.239057L11.169 0.199057L11.143 0.180057C11.1239 0.168025 11.1045 0.156356 11.085 0.145057L11.061 0.131057C11.035 0.117057 11.008 0.104057 10.98 0.0920566L10.946 0.0770566L10.891 0.0570566L10.852 0.0450566L10.789 0.0290566L10.76 0.0220566C10.729 0.0160566 10.698 0.0120566 10.667 0.00805664H1.09198C0.491976 0.00805664 0.00497656 0.492057 0.000976562 1.09106V22.9091C0.000976562 23.5121 0.489977 24.0001 1.09198 24.0001H18.546C19.149 24.0001 19.637 23.5111 19.637 22.9091V17.0181H22.941C23.2303 17.0181 23.5078 16.9031 23.7124 16.6985C23.917 16.4939 24.032 16.2164 24.032 15.9271C24.032 15.6377 23.917 15.3602 23.7124 15.1556C23.5078 14.951 23.2303 14.8361 22.941 14.8361L22.909 14.8371ZM11.636 3.72406L15.911 8.00006H11.636V3.72406ZM17.454 21.8171H2.18198V2.18106H9.45498V9.09006C9.45498 9.69306 9.94398 10.1811 10.546 10.1811H17.455V14.8361H13.179L14.044 13.9711C14.2341 13.7638 14.3369 13.4911 14.3308 13.2099C14.3247 12.9286 14.2102 12.6606 14.0113 12.4618C13.8123 12.263 13.5442 12.1487 13.263 12.1427C12.9818 12.1368 12.7091 12.2398 12.502 12.4301L12.503 12.4291L9.76498 15.1691C9.74394 15.1901 9.72392 15.2121 9.70498 15.2351L9.68498 15.2611C9.66998 15.2811 9.65398 15.3001 9.63998 15.3211L9.62598 15.3431C9.61103 15.3655 9.59702 15.3885 9.58398 15.4121L9.57598 15.4281C9.5619 15.4544 9.54921 15.4814 9.53798 15.5091V15.5201C9.52632 15.5483 9.51565 15.577 9.50598 15.6061V15.6181C9.49679 15.648 9.48911 15.6784 9.48298 15.7091V15.7361C9.47898 15.7621 9.47398 15.7881 9.47098 15.8151C9.462 15.8888 9.462 15.9633 9.47098 16.0371V16.0321C9.47098 16.0591 9.47798 16.0841 9.48298 16.1111V16.1381C9.48898 16.1701 9.49798 16.2001 9.50598 16.2311V16.2421C9.51532 16.2726 9.52634 16.3027 9.53898 16.3321V16.3421C9.55098 16.3691 9.56398 16.3971 9.57798 16.4231L9.58598 16.4381C9.59902 16.462 9.61303 16.4853 9.62798 16.5081L9.64098 16.5291L9.68698 16.5921L9.70498 16.6161C9.72598 16.6421 9.74798 16.6661 9.77098 16.6901L9.77598 16.6961L12.503 19.4231C12.6025 19.5315 12.7229 19.6187 12.857 19.6794C12.9911 19.7401 13.1361 19.7731 13.2833 19.7762C13.4304 19.7794 13.5767 19.7528 13.7133 19.698C13.8499 19.6432 13.974 19.5613 14.0781 19.4572C14.1822 19.3532 14.2642 19.2291 14.3191 19.0926C14.374 18.956 14.4008 18.8097 14.3977 18.6626C14.3946 18.5154 14.3617 18.3704 14.3011 18.2363C14.2405 18.1021 14.1534 17.9816 14.045 17.8821L14.044 17.8811L13.179 17.0161H17.454V21.8171Z" fill="white"/>
</g>
<defs>
<clipPath id="clip0_122_353">
<rect width="24" height="24" fill="white"/>
</clipPath>
</defs>
</svg>
