<svg width="48" height="48" viewBox="0 0 48 48" fill="none" xmlns="http://www.w3.org/2000/svg">
<g filter="url(#filter0_d_1_3335)">
<circle cx="22" cy="22" r="20" fill="white"/>
<circle cx="22" cy="22" r="19.5" stroke="#F5F5F5"/>
</g>
<path d="M28 18C28 16.4087 27.3679 14.8826 26.2426 13.7574C25.1174 12.6321 23.5913 12 22 12C20.4087 12 18.8826 12.6321 17.7574 13.7574C16.6321 14.8826 16 16.4087 16 18C16 25 13 27 13 27H31C31 27 28 25 28 18Z" stroke="#3D3D3D" stroke-width="2" stroke-linecap="round" stroke-linejoin="round"/>
<path d="M23.73 31C23.5542 31.3031 23.3019 31.5547 22.9982 31.7295C22.6946 31.9044 22.3504 31.9965 22 31.9965C21.6496 31.9965 21.3054 31.9044 21.0018 31.7295C20.6982 31.5547 20.4458 31.3031 20.27 31" stroke="#3D3D3D" stroke-width="2" stroke-linecap="round" stroke-linejoin="round"/>
<defs>
<filter id="filter0_d_1_3335" x="0" y="0" width="48" height="48" filterUnits="userSpaceOnUse" color-interpolation-filters="sRGB">
<feFlood flood-opacity="0" result="BackgroundImageFix"/>
<feColorMatrix in="SourceAlpha" type="matrix" values="0 0 0 0 0 0 0 0 0 0 0 0 0 0 0 0 0 0 127 0" result="hardAlpha"/>
<feOffset dx="2" dy="2"/>
<feGaussianBlur stdDeviation="2"/>
<feComposite in2="hardAlpha" operator="out"/>
<feColorMatrix type="matrix" values="0 0 0 0 0.239216 0 0 0 0 0.239216 0 0 0 0 0.239216 0 0 0 0.2 0"/>
<feBlend mode="normal" in2="BackgroundImageFix" result="effect1_dropShadow_1_3335"/>
<feBlend mode="normal" in="SourceGraphic" in2="effect1_dropShadow_1_3335" result="shape"/>
</filter>
</defs>
</svg>
