<svg width="65" height="46" viewBox="0 0 65 46" fill="none" xmlns="http://www.w3.org/2000/svg">
<rect width="65" height="46" rx="8" fill="#0E83D9"/>
<rect x="0.5" y="0.5" width="64" height="45" rx="7.5" stroke="#3D3D3D" stroke-opacity="0.2"/>
<path d="M40.0617 15.9375C39.1366 15.0061 38.0362 14.267 36.8241 13.7628C35.612 13.2586 34.312 12.9994 32.9992 13C27.4742 13 23.0117 17.475 23.0117 23C23.0117 28.525 27.4742 33 32.9992 33C37.6617 33 41.5492 29.8125 42.6617 25.5H40.0617C39.5468 26.9619 38.5909 28.228 37.3259 29.1235C36.0609 30.0191 34.5491 30.5001 32.9992 30.5C28.8617 30.5 25.4992 27.1375 25.4992 23C25.4992 18.8625 28.8617 15.5 32.9992 15.5C35.0742 15.5 36.9242 16.3625 38.2742 17.725L34.2492 21.75H42.9992V13L40.0617 15.9375Z" fill="white"/>
</svg>
