<svg width="36" height="30" viewBox="0 0 36 30" fill="none" xmlns="http://www.w3.org/2000/svg">
<rect width="36" height="30" rx="4" fill="#979799"/>
<g clip-path="url(#clip0_1_3422)">
<path d="M23.2857 12.3213C23.817 13.0824 24.1766 13.95 24.3394 14.8638H26.3332V17.1363H24.3394C24.1766 18.0502 23.817 18.9177 23.2857 19.6788L24.6961 21.0892L23.089 22.6963L21.6786 21.2859C20.9175 21.8173 20.0499 22.1768 19.1361 22.3397V24.3334H16.8636V22.3397C15.9497 22.1768 15.0822 21.8173 14.3211 21.2859L12.9107 22.6963L11.3036 21.0892L12.714 19.6788C12.1826 18.9177 11.8231 18.0502 11.6603 17.1363H9.6665V14.8638H11.6603C11.8231 13.95 12.1826 13.0824 12.714 12.3213L11.3036 10.9109L12.9107 9.30383L14.3211 10.7142C15.0822 10.1829 15.9497 9.82334 16.8636 9.6605V7.66675H19.1361V9.6605C20.0499 9.82334 20.9175 10.1829 21.6786 10.7142L23.089 9.30383L24.6961 10.9109L23.2857 12.3213Z" stroke="white" stroke-width="2" stroke-linejoin="round"/>
<path d="M17.9998 18.0834C18.5524 18.0834 19.0823 17.8639 19.473 17.4732C19.8637 17.0825 20.0832 16.5526 20.0832 16.0001C20.0832 15.4475 19.8637 14.9176 19.473 14.5269C19.0823 14.1362 18.5524 13.9167 17.9998 13.9167C17.4473 13.9167 16.9174 14.1362 16.5267 14.5269C16.136 14.9176 15.9165 15.4475 15.9165 16.0001C15.9165 16.5526 16.136 17.0825 16.5267 17.4732C16.9174 17.8639 17.4473 18.0834 17.9998 18.0834Z" stroke="white" stroke-width="2" stroke-linejoin="round"/>
</g>
<defs>
<clipPath id="clip0_1_3422">
<rect width="20" height="20" fill="white" transform="translate(8 6)"/>
</clipPath>
</defs>
</svg>
