<svg width="36" height="30" viewBox="0 0 36 30" fill="none" xmlns="http://www.w3.org/2000/svg">
<rect width="36" height="30" rx="4" fill="#959596"/>
<path d="M18 18.5C19.3807 18.5 20.5 17.3807 20.5 16C20.5 14.6193 19.3807 13.5 18 13.5C16.6193 13.5 15.5 14.6193 15.5 16C15.5 17.3807 16.6193 18.5 18 18.5Z" fill="white"/>
<path d="M27.3377 15.7875C26.6026 13.886 25.3265 12.2416 23.667 11.0576C22.0075 9.87347 20.0374 9.20161 18.0002 9.125C15.963 9.20161 13.993 9.87347 12.3335 11.0576C10.674 12.2416 9.39782 13.886 8.66272 15.7875C8.61308 15.9248 8.61308 16.0752 8.66272 16.2125C9.39782 18.114 10.674 19.7584 12.3335 20.9424C13.993 22.1265 15.963 22.7984 18.0002 22.875C20.0374 22.7984 22.0075 22.1265 23.667 20.9424C25.3265 19.7584 26.6026 18.114 27.3377 16.2125C27.3874 16.0752 27.3874 15.9248 27.3377 15.7875ZM18.0002 20.0625C17.1967 20.0625 16.4113 19.8242 15.7432 19.3778C15.0751 18.9315 14.5544 18.297 14.247 17.5547C13.9395 16.8123 13.859 15.9955 14.0158 15.2074C14.1725 14.4194 14.5595 13.6955 15.1276 13.1274C15.6958 12.5592 16.4196 12.1723 17.2077 12.0156C17.9957 11.8588 18.8125 11.9393 19.5549 12.2467C20.2972 12.5542 20.9317 13.0749 21.3781 13.743C21.8245 14.4111 22.0627 15.1965 22.0627 16C22.0611 17.0769 21.6325 18.1093 20.871 18.8708C20.1095 19.6323 19.0772 20.0608 18.0002 20.0625Z" fill="white"/>
</svg>
