<svg width="40" height="40" viewBox="0 0 40 40" fill="none" xmlns="http://www.w3.org/2000/svg">
<path d="M29.9998 30C29.0832 30 28.2982 29.6734 27.6448 29.02C26.9915 28.3667 26.6654 27.5823 26.6665 26.6667C26.6665 25.75 26.9932 24.965 27.6465 24.3117C28.2998 23.6584 29.0843 23.3323 29.9998 23.3334C30.9165 23.3334 31.7015 23.66 32.3548 24.3134C33.0082 24.9667 33.3343 25.7512 33.3332 26.6667C33.3332 27.5834 33.0065 28.3684 32.3532 29.0217C31.6998 29.675 30.9154 30.0012 29.9998 30ZM23.3332 36.6667V35.7084C23.3332 34.4861 23.9443 33.5067 25.1665 32.77C26.3887 32.0334 27.9998 31.6656 29.9998 31.6667C31.9998 31.6667 33.6109 32.035 34.8332 32.7717C36.0554 33.5084 36.6665 34.4873 36.6665 35.7084V36.6667H23.3332ZM19.9998 16.6667C20.9165 16.6667 21.7015 16.34 22.3548 15.6867C23.0082 15.0334 23.3343 14.2489 23.3332 13.3334C23.3332 12.4167 23.0065 11.6317 22.3532 10.9784C21.6998 10.325 20.9154 9.99893 19.9998 10C19.0832 10 18.2982 10.3267 17.6448 10.98C16.9915 11.6334 16.6654 12.4178 16.6665 13.3334C16.6665 14.25 16.9932 15.035 17.6465 15.6884C18.2998 16.3417 19.0843 16.6678 19.9998 16.6667ZM16.6665 26.6667C16.6665 27.5834 16.9932 28.3684 17.6465 29.0217C18.2998 29.675 19.0843 30.0012 19.9998 30C20.9165 30 21.7015 29.6734 22.3548 29.02C23.0082 28.3667 23.3343 27.5823 23.3332 26.6667C23.3332 25.75 23.0065 24.965 22.3532 24.3117C21.6998 23.6584 20.9154 23.3323 19.9998 23.3334C19.0832 23.3334 18.2982 23.66 17.6448 24.3134C16.9915 24.9667 16.6654 25.7512 16.6665 26.6667ZM19.9998 28.3334C19.5276 28.3334 19.1315 28.1734 18.8115 27.8534C18.4915 27.5334 18.3321 27.1378 18.3332 26.6667C18.3332 26.1945 18.4932 25.7984 18.8132 25.4784C19.1332 25.1584 19.5287 24.9989 19.9998 25C20.4721 25 20.8682 25.16 21.1882 25.48C21.5082 25.8 21.6676 26.1956 21.6665 26.6667C21.6665 27.1389 21.5065 27.535 21.1865 27.855C20.8665 28.175 20.4709 28.3345 19.9998 28.3334ZM11.6665 11.6667C11.6665 9.3056 12.4654 7.32615 14.0632 5.72838C15.6609 4.1306 17.6398 3.33226 19.9998 3.33338C22.3609 3.33338 24.3404 4.13226 25.9382 5.73004C27.5359 7.32782 28.3343 9.30671 28.3332 11.6667V18.3334C28.3332 18.8056 28.1732 19.2017 27.8532 19.5217C27.5332 19.8417 27.1376 20.0012 26.6665 20C26.1943 20 25.7982 19.84 25.4782 19.52C25.1582 19.2 24.9987 18.8045 24.9998 18.3334V11.6667C24.9998 10.25 24.4998 9.06226 23.4998 8.10337C22.4998 7.14449 21.3332 6.6656 19.9998 6.66671C18.6665 6.66671 17.4998 7.14615 16.4998 8.10504C15.4998 9.06393 14.9998 10.2512 14.9998 11.6667V28.3334C14.9998 29.5 15.3748 30.5417 16.1248 31.4584C16.8748 32.375 17.7915 32.9584 18.8748 33.2084C19.2637 33.2917 19.5904 33.4862 19.8548 33.7917C20.1193 34.0973 20.2509 34.4445 20.2498 34.8334C20.2498 35.3889 20.0415 35.8334 19.6248 36.1667C19.2082 36.5 18.7221 36.5973 18.1665 36.4584C16.2776 36.0417 14.7221 35.0906 13.4998 33.605C12.2776 32.1195 11.6665 30.3623 11.6665 28.3334V11.6667Z" fill="#3D3D3D"/>
</svg>
